<svg width="16" height="17" viewBox="0 0 16 17" fill="none" xmlns="http://www.w3.org/2000/svg">
<path d="M12.5 6.09194C12.5003 6.19867 12.4791 6.30413 12.4379 6.40056C12.3968 6.49699 12.3367 6.58195 12.2621 6.64919L8.40534 10.0998C8.29032 10.2049 8.14605 10.2623 7.99717 10.2623C7.84828 10.2623 7.70401 10.2049 7.58899 10.0998L3.73221 6.52774C3.60094 6.40647 3.51839 6.23222 3.50272 6.04331C3.48705 5.8544 3.53954 5.66631 3.64865 5.52041C3.75776 5.37452 3.91454 5.28277 4.08451 5.26535C4.25449 5.24793 4.42372 5.30627 4.55499 5.42754L8.00038 8.62097L11.4458 5.5347C11.5401 5.44734 11.655 5.39185 11.7769 5.37479C11.8987 5.35773 12.0224 5.37981 12.1333 5.43844C12.2442 5.49706 12.3377 5.58976 12.4026 5.70557C12.4676 5.82139 12.5014 5.95547 12.5 6.09194Z" fill="#EB7119"/>
</svg>
