<svg width="16" height="17" viewBox="0 0 16 17" fill="none" xmlns="http://www.w3.org/2000/svg">
<path d="M11.625 1.23108H4.375C3.82344 1.23108 3.375 1.67952 3.375 2.23108V14.2311C3.375 14.7826 3.82344 15.2311 4.375 15.2311H11.625C12.1766 15.2311 12.625 14.7826 12.625 14.2311V2.23108C12.625 1.67952 12.1766 1.23108 11.625 1.23108ZM11.5 14.1061H4.5V2.35608H11.5V14.1061ZM7.375 12.5123C7.375 12.6781 7.44085 12.8371 7.55806 12.9543C7.67527 13.0715 7.83424 13.1373 8 13.1373C8.16576 13.1373 8.32473 13.0715 8.44194 12.9543C8.55915 12.8371 8.625 12.6781 8.625 12.5123C8.625 12.3466 8.55915 12.1876 8.44194 12.0704C8.32473 11.9532 8.16576 11.8873 8 11.8873C7.83424 11.8873 7.67527 11.9532 7.55806 12.0704C7.44085 12.1876 7.375 12.3466 7.375 12.5123Z" fill="black"/>
</svg>
